<?xml version="1.0" encoding="utf-8"?>
<!-- Generator: Adobe Illustrator 20.1.0, SVG Export Plug-In . SVG Version: 6.00 Build 0)  -->
<!DOCTYPE svg PUBLIC "-//W3C//DTD SVG 1.1//EN" "http://www.w3.org/Graphics/SVG/1.1/DTD/svg11.dtd">
<svg version="1.1" id="Red_U_x2C__Black_text_x2C__Red_Line_x2C__white_background"
	 xmlns="http://www.w3.org/2000/svg" xmlns:xlink="http://www.w3.org/1999/xlink" x="0px" y="0px" viewBox="0 0 2700 600"
	 style="enable-background:new 0 0 2700 600;" xml:space="preserve">
<style type="text/css">
	.st0{fill:#CC0000;stroke:#CC0000;}
	.st1{fill:#CC0000;}
</style>
<g id="DESB_Line_copy_2">
</g>
<g>
	<g>
		<g>
			<path d="M710.3,52.2c11.8-1.9,27.1-2.9,43.3-2.9c26.9,0,44.3,4.8,58,15.1c14.7,10.9,23.9,28.4,23.9,53.3
				c0,27.1-9.9,45.8-23.5,57.3c-14.9,12.4-37.6,18.3-65.3,18.3c-16.6,0-28.4-1.1-36.3-2.1v-139H710.3z M742.5,167.7
				c2.7,0.6,7.1,0.6,11.1,0.6c29,0.2,47.9-15.8,47.9-49.6c0.2-29.4-17-44.9-44.5-44.9c-7.1,0-11.8,0.6-14.5,1.3V167.7z"/>
			<path d="M941.1,166.8c0,9.9,0.4,19.3,1.5,25h-28.8l-1.9-10.3h-0.6c-6.7,8.2-17.2,12.6-29.4,12.6c-20.8,0-33.2-15.1-33.2-31.5
				c0-26.7,23.9-39.5,60.3-39.3v-1.5c0-5.5-2.9-13.2-18.7-13.2c-10.5,0-21.6,3.6-28.4,7.8L856,95.8c7.1-4,21.2-9,39.9-9
				c34.2,0,45.2,20.2,45.2,44.3L941.1,166.8L941.1,166.8z M910.1,143.3c-16.8-0.2-29.8,3.8-29.8,16.2c0,8.2,5.5,12.2,12.6,12.2
				c8,0,14.5-5.2,16.6-11.8c0.4-1.7,0.6-3.6,0.6-5.5L910.1,143.3L910.1,143.3z"/>
			<path d="M987.5,89.1l13.9,47.7c2.5,8.6,4.4,16.8,5.9,25h0.6c1.7-8.4,3.4-16.2,5.7-25l13.2-47.7h33.6l-38.2,102.7h-31.9
				L952.9,89.1H987.5z"/>
			<path d="M1108.1,60.6c0,8.8-6.7,16-17.2,16c-10.1,0-16.8-7.1-16.6-16c-0.2-9.2,6.5-16.2,16.8-16.2
				C1101.4,44.4,1107.9,51.3,1108.1,60.6z M1075.1,191.8V89.1h31.9v102.7L1075.1,191.8L1075.1,191.8z"/>
			<path d="M1232.2,42.7v118.4c0,11.6,0.4,23.7,0.8,30.7h-28.4l-1.5-15.1h-0.4c-6.5,11.6-18.9,17.4-32.1,17.4
				c-24.4,0-43.9-20.8-43.9-52.7c-0.2-34.7,21.4-54.6,46-54.6c12.6,0,22.5,4.4,27.1,11.6h0.4V42.7H1232.2z M1200.3,132.6
				c0-1.7-0.2-4-0.4-5.7c-1.9-8.6-8.8-15.8-18.7-15.8c-14.5,0-22.1,13-22.1,29.2c0,17.4,8.6,28.4,21.8,28.4
				c9.2,0,16.6-6.3,18.5-15.3c0.6-2.3,0.8-4.6,0.8-7.4L1200.3,132.6L1200.3,132.6z"/>
			<path d="M1385.5,132h-52.1v33.6h58.2v26.3h-90.3V50.3h87.4v26.3h-55.2V106h52.1L1385.5,132L1385.5,132z"/>
			<path d="M1488.6,189.3c-5.7,2.5-16.4,4.8-28.6,4.8c-33.2,0-54.4-20.4-54.4-52.7c0-30,20.6-54.6,58.8-54.6c8.4,0,17.6,1.5,24.4,4
				l-5,23.7c-3.8-1.7-9.4-3.2-17.8-3.2c-16.8,0-27.7,12-27.5,28.8c0,18.9,12.6,28.8,28.1,28.8c7.6,0,13.4-1.3,18.3-3.4L1488.6,189.3
				z"/>
			<path d="M1581,189.3c-5.7,2.5-16.4,4.8-28.6,4.8c-33.2,0-54.4-20.4-54.4-52.7c0-30,20.6-54.6,58.8-54.6c8.4,0,17.6,1.5,24.4,4
				l-5,23.7c-3.8-1.7-9.5-3.2-17.9-3.2c-16.8,0-27.7,12-27.5,28.8c0,18.9,12.6,28.8,28.1,28.8c7.6,0,13.4-1.3,18.3-3.4L1581,189.3z"
				/>
			<path d="M1598.6,42.7h31.9v149.1h-31.9V42.7z"/>
			<path d="M1681,150.7c1.1,13.2,14.1,19.5,29,19.5c10.9,0,19.7-1.5,28.4-4.2l4.2,21.6c-10.5,4.2-23.3,6.5-37.2,6.5
				c-34.9,0-54.8-20.4-54.8-52.5c0-26,16.2-54.8,51.9-54.8c33.2,0,45.8,25.8,45.8,51.2c0,5.5-0.6,10.3-1,12.6L1681,150.7L1681,150.7
				z M1718.6,128.8c0-7.8-3.4-20.8-18.1-20.8c-13.4,0-18.9,12.2-19.7,20.8H1718.6z"/>
			<path d="M1767.1,163.9c5.9,3.6,18.1,7.8,27.5,7.8c9.7,0,13.7-3.4,13.7-8.6c0-5.2-3.2-7.8-15.1-11.8
				c-21.2-7.1-29.4-18.7-29.2-30.7c0-19.3,16.4-33.8,41.8-33.8c12,0,22.7,2.7,29,5.9l-5.7,22.1c-4.6-2.5-13.4-5.9-22.3-5.9
				c-7.8,0-12.2,3.1-12.2,8.4c0,4.8,4,7.4,16.6,11.8c19.5,6.7,27.7,16.6,27.9,31.7c0,19.1-15.1,33.4-44.5,33.4
				c-13.4,0-25.4-3.1-33.2-7.4L1767.1,163.9z"/>
		</g>
		<g>
			<path d="M713,346.7c9.6,4.9,24.4,9.9,39.7,9.9c16.5,0,25.1-6.8,25.1-17.2c0-9.9-7.5-15.5-26.6-22.3
				c-26.3-9.2-43.5-23.7-43.5-46.8c0-27,22.6-47.7,59.9-47.7c17.9,0,31,3.8,40.4,8l-8,28.9c-6.3-3.1-17.6-7.5-33.1-7.5
				s-23,7.1-23,15.3c0,10.1,8.9,14.6,29.4,22.3c28,10.3,41.1,24.9,41.1,47.2c0,26.6-20.4,49.4-63.9,49.4c-18.1,0-36-4.9-44.9-9.9
				L713,346.7z"/>
			<path d="M925.5,380.8c-6.3,2.8-18.3,5.4-32,5.4c-37.1,0-60.9-22.8-60.9-59c0-33.6,23-61.1,65.8-61.1c9.4,0,19.7,1.6,27.3,4.5
				l-5.6,26.6c-4.2-1.9-10.6-3.5-20-3.5c-18.8,0-31,13.4-30.8,32.2c0,21.2,14.1,32.2,31.5,32.2c8.5,0,15-1.4,20.4-3.8L925.5,380.8z"
				/>
			<path d="M945.2,216.8h35.7v65.6h0.5c3.8-4.9,8.5-8.9,14.1-11.7c5.4-2.8,12-4.5,18.6-4.5c22.8,0,40.2,15.7,40.2,50.3v67.2h-35.7
				v-63.2c0-15-5.2-25.4-18.6-25.4c-9.4,0-15.3,6.1-17.9,12.5c-0.9,2.4-1.2,5.4-1.2,8v68.2h-35.7L945.2,216.8L945.2,216.8z"/>
			<path d="M1196.4,324.9c0,42.1-29.8,61.3-60.6,61.3c-33.6,0-59.5-22.1-59.5-59.2s24.4-60.9,61.3-60.9
				C1172.9,266.1,1196.4,290.3,1196.4,324.9z M1113.2,326.1c0,19.7,8.2,34.5,23.5,34.5c13.9,0,22.8-13.9,22.8-34.5
				c0-17.2-6.6-34.5-22.8-34.5C1119.6,291.5,1113.2,309.1,1113.2,326.1z"/>
			<path d="M1332.7,324.9c0,42.1-29.8,61.3-60.6,61.3c-33.6,0-59.5-22.1-59.5-59.2s24.4-60.9,61.3-60.9
				C1309.2,266.1,1332.7,290.3,1332.7,324.9z M1249.5,326.1c0,19.7,8.2,34.5,23.5,34.5c13.9,0,22.8-13.9,22.8-34.5
				c0-17.2-6.6-34.5-22.8-34.5C1255.9,291.5,1249.5,309.1,1249.5,326.1z"/>
			<path d="M1354.8,216.8h35.7v166.9h-35.7V216.8z"/>
			<path d="M1580.4,324.9c0,42.1-29.8,61.3-60.6,61.3c-33.6,0-59.5-22.1-59.5-59.2s24.4-60.9,61.3-60.9
				C1556.9,266.1,1580.4,290.3,1580.4,324.9z M1497.2,326.1c0,19.7,8.2,34.5,23.5,34.5c13.9,0,22.8-13.9,22.8-34.5
				c0-17.2-6.6-34.5-22.8-34.5C1503.5,291.5,1497.2,309.1,1497.2,326.1z"/>
			<path d="M1606.5,383.6V295h-15v-26.3h15v-4.5c0-13.9,4.2-29.1,14.6-38.5c8.9-8.5,21.4-11.5,31.7-11.5c8,0,14.1,0.9,19,2.4
				l-1.4,27.5c-3.1-0.9-6.8-1.6-11.5-1.6c-11.8,0-16.7,9.2-16.7,20.4v5.9h23V295h-22.8v88.6H1606.5z"/>
			<path d="M1731.3,227.4c9.4-1.9,28.4-3.3,46.3-3.3c21.9,0,35.3,2.1,46.8,8.9c11,5.9,19,16.7,19,31c0,14.1-8.2,27.3-26.1,33.8v0.5
				c18.1,4.9,31.5,18.6,31.5,39c0,14.3-6.6,25.6-16.5,33.6c-11.5,9.2-30.8,14.3-62.3,14.3c-17.6,0-30.8-1.2-38.8-2.3L1731.3,227.4
				L1731.3,227.4z M1766.7,288h11.8c18.8,0,28.9-7.8,28.9-19.5c0-12-9.2-18.3-25.4-18.3c-7.8,0-12.2,0.5-15.3,0.9V288z
				 M1766.7,358.3c3.5,0.5,7.8,0.5,13.9,0.5c16.2,0,30.5-6.3,30.5-22.8c0-16-14.3-22.3-32.2-22.3h-12.2L1766.7,358.3L1766.7,358.3z"
				/>
			<path d="M1980.4,346.7c0,15,0.5,27.3,0.9,36.9h-31l-1.6-16.2h-0.7c-4.5,7-15.3,18.8-36,18.8c-23.3,0-40.4-14.6-40.4-50.1v-67.4
				h36v61.8c0,16.7,5.4,26.8,17.9,26.8c9.9,0,15.5-6.8,17.9-12.5c0.9-2.1,1.2-4.9,1.2-7.8v-68.4h36v78.1H1980.4z"/>
			<path d="M2008.8,352.4c6.6,4,20.2,8.7,30.8,8.7c10.8,0,15.3-3.8,15.3-9.6s-3.5-8.7-16.9-13.2c-23.7-8-32.9-20.9-32.7-34.3
				c0-21.6,18.3-37.8,46.8-37.8c13.4,0,25.4,3.1,32.4,6.6l-6.3,24.7c-5.2-2.8-15-6.6-24.9-6.6c-8.7,0-13.6,3.5-13.6,9.4
				c0,5.4,4.5,8.2,18.6,13.2c21.9,7.5,31,18.6,31.3,35.5c0,21.4-16.9,37.4-49.8,37.4c-15,0-28.4-3.5-37.1-8.2L2008.8,352.4z"/>
			<path d="M2147.9,236.8c0,9.9-7.5,17.9-19.3,17.9c-11.3,0-18.8-8-18.6-17.9c-0.2-10.3,7.3-18.1,18.8-18.1
				S2147.7,226.4,2147.9,236.8z M2111,383.6V268.7h35.7v114.9H2111z"/>
			<path d="M2175.4,305.4c0-14.3-0.5-26.6-0.9-36.7h31l1.6,15.7h0.7c4.7-7.3,16.4-18.3,35.5-18.3c23.5,0,41.1,15.5,41.1,49.4v68.2
				h-35.7V320c0-14.8-5.2-24.9-18.1-24.9c-9.9,0-15.7,6.8-18.1,13.4c-0.9,2.4-1.4,5.6-1.4,8.9v66.3h-35.7L2175.4,305.4L2175.4,305.4
				z"/>
			<path d="M2340.6,337.6c1.2,14.8,15.7,21.9,32.4,21.9c12.2,0,22.1-1.6,31.7-4.7l4.7,24.2c-11.8,4.7-26.1,7.3-41.6,7.3
				c-39,0-61.3-22.8-61.3-58.8c0-29.1,18.1-61.3,58-61.3c37.1,0,51.2,28.9,51.2,57.3c0,6.1-0.7,11.5-1.2,14.1H2340.6z M2382.7,313.1
				c0-8.7-3.8-23.3-20.2-23.3c-15,0-21.2,13.6-22.1,23.3H2382.7z"/>
			<path d="M2437,352.4c6.6,4,20.2,8.7,30.8,8.7c10.8,0,15.3-3.8,15.3-9.6s-3.5-8.7-16.9-13.2c-23.7-8-32.9-20.9-32.7-34.3
				c0-21.6,18.3-37.8,46.8-37.8c13.4,0,25.4,3.1,32.4,6.6l-6.3,24.7c-5.2-2.8-15-6.6-24.9-6.6c-8.7,0-13.6,3.5-13.6,9.4
				c0,5.4,4.5,8.2,18.6,13.2c21.9,7.5,31,18.6,31.3,35.5c0,21.4-16.9,37.4-49.8,37.4c-15,0-28.4-3.5-37.1-8.2L2437,352.4z"/>
			<path d="M2538.9,352.4c6.6,4,20.2,8.7,30.8,8.7c10.8,0,15.3-3.8,15.3-9.6s-3.5-8.7-16.9-13.2c-23.7-8-32.9-20.9-32.7-34.3
				c0-21.6,18.3-37.8,46.8-37.8c13.4,0,25.4,3.1,32.4,6.6l-6.3,24.7c-5.2-2.8-15-6.6-24.9-6.6c-8.7,0-13.6,3.5-13.6,9.4
				c0,5.4,4.5,8.2,18.6,13.2c21.9,7.5,31,18.6,31.3,35.5c0,21.4-16.9,37.4-49.8,37.4c-15,0-28.4-3.5-37.1-8.2L2538.9,352.4z"/>
		</g>
		<g>
			<path d="M746.6,519.7c0,12.8,0,23.3,0.7,28.8c0.4,3.9,1.2,6.8,5.2,7.3c1.9,0.3,4.8,0.5,6,0.5c0.8,0,1.1,0.4,1.1,0.8
				c0,0.7-0.7,1.1-2.1,1.1c-7.3,0-15.7-0.4-16.3-0.4c-0.7,0-9,0.4-13,0.4c-1.5,0-2.1-0.3-2.1-1.1c0-0.4,0.3-0.8,1.1-0.8
				c1.2,0,2.8-0.3,4-0.5c2.7-0.5,3.3-3.5,3.9-7.3c0.7-5.6,0.7-16.1,0.7-28.8v-56.2l-19.7,0.3c-8.2,0.1-11.4,1.1-13.6,4.3
				c-1.5,2.3-1.9,3.2-2.3,4.1c-0.4,1.1-0.8,1.3-1.3,1.3c-0.4,0-0.7-0.4-0.7-1.2c0-1.3,2.7-12.8,2.9-13.8c0.3-0.8,0.8-2.5,1.3-2.5
				c0.9,0,2.3,1.3,5.8,1.6c3.9,0.4,8.9,0.7,10.5,0.7h49.8c4.3,0,7.3-0.3,9.4-0.7c2-0.3,3.2-0.7,3.7-0.7c0.7,0,0.7,0.8,0.7,1.6
				c0,4-0.4,13.2-0.4,14.6c0,1.2-0.4,1.7-0.9,1.7c-0.7,0-0.9-0.4-1.1-2.3l-0.1-1.5c-0.4-4-3.6-7-16.3-7.3l-16.7-0.3v56.3H746.6z"/>
			<path d="M890.4,519.7c0,12.8,0,23.3,0.7,28.8c0.4,3.9,1.2,6.8,5.2,7.3c1.9,0.3,4.8,0.5,6,0.5c0.8,0,1.1,0.4,1.1,0.8
				c0,0.7-0.7,1.1-2.1,1.1c-7.3,0-15.7-0.4-16.3-0.4c-0.7,0-9,0.4-13,0.4c-1.5,0-2.1-0.3-2.1-1.1c0-0.4,0.3-0.8,1.1-0.8
				c1.2,0,2.8-0.3,4-0.5c2.7-0.5,3.3-3.5,3.9-7.3c0.7-5.6,0.7-16.1,0.7-28.8v-14c0-0.5-0.4-0.8-0.8-0.8h-56.4
				c-0.4,0-0.8,0.1-0.8,0.8v14c0,12.8,0,23.3,0.7,28.8c0.4,3.9,1.2,6.8,5.2,7.3c1.9,0.3,4.8,0.5,6,0.5c0.8,0,1.1,0.4,1.1,0.8
				c0,0.7-0.7,1.1-2.1,1.1c-7.3,0-15.7-0.4-16.3-0.4s-9,0.4-13,0.4c-1.5,0-2.1-0.3-2.1-1.1c0-0.4,0.3-0.8,1.1-0.8
				c1.2,0,2.8-0.3,4-0.5c2.7-0.5,3.3-3.5,3.9-7.3c0.7-5.6,0.7-16.1,0.7-28.8v-23.4c0-20.7,0-24.5-0.3-28.7c-0.3-4.5-1.3-6.6-5.7-7.6
				c-1.1-0.3-3.3-0.4-4.5-0.4c-0.5,0-1.1-0.3-1.1-0.8c0-0.8,0.7-1.1,2.1-1.1c6,0,14.4,0.4,15,0.4s9-0.4,13-0.4
				c1.5,0,2.1,0.3,2.1,1.1c0,0.5-0.5,0.8-1.1,0.8c-0.9,0-1.7,0.1-3.3,0.4c-3.6,0.7-4.7,2.9-4.9,7.6c-0.3,4.3-0.3,8-0.3,28.7v2.8
				c0,0.7,0.4,0.8,0.8,0.8H879c0.4,0,0.8-0.1,0.8-0.8v-2.8c0-20.7,0-24.5-0.3-28.7c-0.3-4.5-1.3-6.6-5.7-7.6
				c-1.1-0.3-3.3-0.4-4.5-0.4c-0.5,0-1.1-0.3-1.1-0.8c0-0.8,0.7-1.1,2.1-1.1c6,0,14.4,0.4,15,0.4c0.7,0,9-0.4,13-0.4
				c1.5,0,2.1,0.3,2.1,1.1c0,0.5-0.5,0.8-1.1,0.8c-0.9,0-1.7,0.1-3.3,0.4c-3.6,0.7-4.7,2.9-4.9,7.6c-0.3,4.3-0.3,8-0.3,28.7v23.4
				H890.4z"/>
			<path d="M937.7,496.3c0-20.7,0-24.5-0.3-28.7c-0.3-4.5-1.3-6.6-5.7-7.6c-1.1-0.3-3.3-0.4-4.5-0.4c-0.5,0-1.1-0.3-1.1-0.8
				c0-0.8,0.7-1.1,2.1-1.1c3.1,0,6.6,0,9.6,0.1l5.4,0.3c0.9,0,27.4,0,30.4-0.1c2.5-0.1,4.7-0.4,5.7-0.7c0.7-0.1,1.2-0.7,1.9-0.7
				c0.4,0,0.5,0.5,0.5,1.2c0,0.9-0.7,2.5-1.1,6.2c-0.1,1.3-0.4,7.2-0.7,8.8c-0.1,0.7-0.4,1.5-0.9,1.5c-0.8,0-1.1-0.7-1.1-1.7
				c0-0.9-0.1-3.2-0.8-4.8c-0.9-2.1-2.3-3.7-9.4-4.5c-2.3-0.3-16.7-0.4-18.2-0.4c-0.5,0-0.8,0.4-0.8,1.3V501c0,0.9,0.1,1.3,0.8,1.3
				c1.7,0,18.1,0,21.1-0.3c3.2-0.3,5.1-0.5,6.2-1.9c0.9-1.1,1.5-1.7,2-1.7c0.4,0,0.7,0.3,0.7,1.1c0,0.8-0.7,3.1-1.1,7.4
				c-0.3,2.7-0.5,7.6-0.5,8.5c0,1.1,0,2.5-0.9,2.5c-0.7,0-0.9-0.5-0.9-1.2c0-1.3,0-2.7-0.5-4.4c-0.5-1.9-1.7-4.1-6.9-4.7
				c-3.6-0.4-16.7-0.7-19-0.7c-0.7,0-0.9,0.4-0.9,0.9v11.7c0,4.5-0.1,19.9,0,22.7c0.4,9.2,2.4,10.9,15.4,10.9c3.5,0,9.3,0,12.8-1.5
				s5.1-4.1,6-9.6c0.3-1.5,0.5-2,1.2-2c0.8,0,0.8,1.1,0.8,2c0,1.1-1.1,10.1-1.7,12.9c-0.9,3.5-2,3.5-7.2,3.5
				c-10,0-17.3-0.3-22.5-0.4c-5.2-0.3-8.4-0.4-10.4-0.4c-0.3,0-2.5,0-5.3,0.1c-2.7,0-5.7,0.3-7.7,0.3c-1.5,0-2.1-0.3-2.1-1.1
				c0-0.4,0.3-0.8,1.1-0.8c1.2,0,2.8-0.3,4-0.5c2.7-0.5,3.3-3.5,3.9-7.3c0.7-5.6,0.7-16.1,0.7-28.8L937.7,496.3L937.7,496.3z"/>
			<path d="M1054.3,496.3c0-20.7,0-24.5-0.3-28.7c-0.3-4.5-1.3-6.6-5.7-7.6c-1.1-0.3-3.3-0.4-4.5-0.4c-0.5,0-1.1-0.3-1.1-0.8
				c0-0.8,0.7-1.1,2.1-1.1c6,0,14.1,0.4,15.3,0.4s9.2-0.4,13.2-0.4c1.5,0,2.1,0.3,2.1,1.1c0,0.5-0.5,0.8-1.1,0.8
				c-0.9,0-1.7,0.1-3.3,0.4c-3.6,0.5-4.7,2.9-4.9,7.6c-0.3,4.3-0.3,8-0.3,28.7V515c0,19.1,4.3,27.4,10,32.8
				c6.5,6.1,12.5,7.3,20.1,7.3c8.1,0,16.1-3.9,20.9-9.6c6.1-7.6,7.7-18.9,7.7-32.6v-16.6c0-20.7,0-24.5-0.3-28.7
				c-0.3-4.5-1.3-6.6-5.7-7.6c-1.1-0.3-3.3-0.4-4.5-0.4c-0.5,0-1.1-0.3-1.1-0.8c0-0.8,0.7-1.1,2.1-1.1c6,0,13.3,0.4,14.1,0.4
				c0.9,0,7.2-0.4,11.2-0.4c1.5,0,2.1,0.3,2.1,1.1c0,0.5-0.5,0.8-1.1,0.8c-0.9,0-1.7,0.1-3.3,0.4c-3.6,0.8-4.7,2.9-4.9,7.6
				c-0.3,4.3-0.3,8-0.3,28.7v14.2c0,14.4-1.6,30.3-12.2,39.7c-9.6,8.5-19.5,9.8-27.4,9.8c-4.5,0-17.9-0.5-27.4-9.4
				c-6.5-6.2-11.6-15.6-11.6-35v-19.3H1054.3z"/>
			<path d="M1175.9,540.2c0.3,10.9,1.6,14.4,5.2,15.4c2.5,0.7,5.4,0.8,6.6,0.8c0.7,0,1.1,0.3,1.1,0.8c0,0.8-0.8,1.1-2.4,1.1
				c-7.6,0-12.9-0.4-14.1-0.4s-6.8,0.4-12.8,0.4c-1.3,0-2.1-0.1-2.1-1.1c0-0.5,0.4-0.8,1.1-0.8c1.1,0,3.5-0.1,5.4-0.8
				c3.3-0.9,4-4.8,4-16.9l0.1-76.2c0-5.2,0.4-6.6,1.5-6.6s3.3,2.9,4.7,4.3c2,2.3,21.8,23.7,42.3,45.6c13.2,14.1,27.6,30.3,31.9,34.7
				l-1.5-67.5c-0.1-8.6-1.1-11.6-5.2-12.6c-2.4-0.5-5.4-0.7-6.5-0.7c-0.9,0-1.1-0.4-1.1-0.9c0-0.8,1.1-0.9,2.7-0.9
				c6,0,12.4,0.4,13.8,0.4c1.5,0,5.8-0.4,11.3-0.4c1.5,0,2.4,0.1,2.4,0.9c0,0.5-0.5,0.9-1.5,0.9c-0.7,0-1.6,0-3.2,0.4
				c-4.4,0.9-4.9,3.9-4.9,11.8l-0.3,77.9c0,8.8-0.3,9.4-1.2,9.4c-1.1,0-2.7-1.5-9.7-8.5c-1.5-1.3-20.6-20.9-34.7-36
				c-15.4-16.6-30.4-33.4-34.7-38.1L1175.9,540.2z"/>
			<path d="M1309.4,519.7c0,12.8,0,23.3,0.7,28.8c0.4,3.9,1.2,6.8,5.2,7.3c1.9,0.3,4.8,0.5,6,0.5c0.8,0,1.1,0.4,1.1,0.8
				c0,0.7-0.7,1.1-2.1,1.1c-7.3,0-15.7-0.4-16.3-0.4s-9,0.4-13,0.4c-1.5,0-2.1-0.3-2.1-1.1c0-0.4,0.3-0.8,1.1-0.8
				c1.2,0,2.8-0.3,4-0.5c2.7-0.5,3.3-3.5,3.9-7.3c0.7-5.6,0.7-16.1,0.7-28.8v-23.4c0-20.7,0-24.5-0.3-28.7c-0.3-4.5-1.6-6.8-4.5-7.4
				c-1.5-0.4-3.2-0.5-4.1-0.5c-0.5,0-1.1-0.3-1.1-0.8c0-0.8,0.7-1.1,2.1-1.1c4.4,0,12.8,0.4,13.4,0.4s9-0.4,13-0.4
				c1.5,0,2.1,0.3,2.1,1.1c0,0.5-0.5,0.8-1.1,0.8c-0.9,0-1.7,0.1-3.3,0.4c-3.6,0.7-4.7,2.9-4.9,7.6c-0.3,4.3-0.3,8-0.3,28.7v23.3
				H1309.4z"/>
			<path d="M1385.5,542.1c7.7-17.8,25.5-64.2,28.4-73.8c0.7-2,1.2-3.9,1.2-5.1c0-1.1-0.4-2.4-1.7-3.1c-1.6-0.5-3.6-0.5-5.1-0.5
				c-0.8,0-1.5-0.1-1.5-0.8c0-0.8,0.8-1.1,2.9-1.1c5.3,0,11.4,0.4,13,0.4c0.8,0,6.5-0.4,10.4-0.4c1.5,0,2.3,0.3,2.3,0.9
				c0,0.7-0.5,0.9-1.6,0.9c-0.9,0-3.9,0-6.4,1.6c-1.7,1.2-3.7,3.5-7.3,12.5c-1.5,3.7-8.1,19.7-14.9,36
				c-8.1,19.4-14.1,33.8-17.1,40.3c-3.7,8-4.3,10.1-5.6,10.1c-1.6,0-2.3-1.9-4.8-8.2l-32.6-81.5c-2.9-7.4-4.9-8.9-9.6-10.2
				c-2-0.5-4.3-0.5-5.1-0.5s-1.1-0.4-1.1-0.9c0-0.8,1.3-0.9,3.5-0.9c6.4,0,14,0.4,15.6,0.4c1.3,0,7.3-0.4,12.4-0.4
				c2.4,0,3.6,0.3,3.6,0.9c0,0.7-0.4,0.9-1.3,0.9c-1.5,0-3.9,0.1-5.1,0.7c-1.5,0.7-1.7,1.7-1.7,2.7c0,1.7,1.6,5.8,3.6,11
				L1385.5,542.1z"/>
			<path d="M1455.3,496.3c0-20.7,0-24.5-0.3-28.7c-0.3-4.5-1.3-6.6-5.7-7.6c-1.1-0.3-3.3-0.4-4.5-0.4c-0.5,0-1.1-0.3-1.1-0.8
				c0-0.8,0.7-1.1,2.1-1.1c3.1,0,6.6,0,9.6,0.1l5.4,0.3c0.9,0,27.4,0,30.4-0.1c2.5-0.1,4.7-0.4,5.7-0.7c0.7-0.1,1.2-0.7,1.9-0.7
				c0.4,0,0.5,0.5,0.5,1.2c0,0.9-0.7,2.5-1.1,6.2c-0.1,1.3-0.4,7.2-0.7,8.8c-0.1,0.7-0.4,1.5-0.9,1.5c-0.8,0-1.1-0.7-1.1-1.7
				c0-0.9-0.1-3.2-0.8-4.8c-0.9-2.1-2.3-3.7-9.4-4.5c-2.3-0.3-16.7-0.4-18.2-0.4c-0.5,0-0.8,0.4-0.8,1.3V501c0,0.9,0.1,1.3,0.8,1.3
				c1.7,0,18.1,0,21.1-0.3c3.2-0.3,5.1-0.5,6.2-1.9c0.9-1.1,1.5-1.7,2-1.7c0.4,0,0.7,0.3,0.7,1.1c0,0.8-0.7,3.1-1.1,7.4
				c-0.3,2.7-0.5,7.6-0.5,8.5c0,1.1,0,2.5-0.9,2.5c-0.7,0-0.9-0.5-0.9-1.2c0-1.3,0-2.7-0.5-4.4c-0.5-1.9-1.7-4.1-6.9-4.7
				c-3.6-0.4-16.7-0.7-19-0.7c-0.7,0-0.9,0.4-0.9,0.9v11.7c0,4.5-0.1,19.9,0,22.7c0.4,9.2,2.4,10.9,15.4,10.9c3.5,0,9.3,0,12.8-1.5
				s5.1-4.1,6-9.6c0.3-1.5,0.5-2,1.2-2c0.8,0,0.8,1.1,0.8,2c0,1.1-1.1,10.1-1.7,12.9c-0.9,3.5-2,3.5-7.2,3.5
				c-10,0-17.3-0.3-22.5-0.4c-5.2-0.3-8.4-0.4-10.4-0.4c-0.3,0-2.5,0-5.3,0.1c-2.7,0-5.7,0.3-7.7,0.3c-1.5,0-2.1-0.3-2.1-1.1
				c0-0.4,0.3-0.8,1.1-0.8c1.2,0,2.8-0.3,4-0.5c2.7-0.5,3.3-3.5,3.9-7.3c0.7-5.6,0.7-16.1,0.7-28.8L1455.3,496.3L1455.3,496.3z"/>
			<path d="M1536.4,496.3c0-20.7,0-24.5-0.3-28.7c-0.3-4.5-1.3-6.6-5.7-7.6c-1.1-0.3-3.3-0.4-4.5-0.4c-0.5,0-1.1-0.3-1.1-0.8
				c0-0.8,0.7-1.1,2.1-1.1c6,0,14.4,0.4,15,0.4c1.5,0,11.6-0.4,15.7-0.4c8.4,0,17.3,0.8,24.3,5.8c3.3,2.4,9.2,8.9,9.2,18.1
				c0,9.8-4.1,19.7-16.1,30.7c10.9,14,19.9,25.8,27.6,34c7.2,7.6,12.9,9,16.2,9.6c2.5,0.4,4.4,0.4,5.2,0.4c0.7,0,1.2,0.4,1.2,0.8
				c0,0.8-0.8,1.1-3.2,1.1h-9.4c-7.4,0-10.8-0.7-14.2-2.5c-5.7-3.1-10.4-9.6-17.9-19.5c-5.6-7.3-11.8-16.2-14.5-19.7
				c-0.5-0.5-0.9-0.8-1.7-0.8l-16.3-0.3c-0.7,0-0.9,0.4-0.9,1.1v3.2c0,12.8,0,23.3,0.7,28.8c0.4,3.9,1.2,6.8,5.2,7.3
				c1.9,0.3,4.8,0.5,6,0.5c0.8,0,1.1,0.4,1.1,0.8c0,0.7-0.7,1.1-2.1,1.1c-7.3,0-15.7-0.4-16.3-0.4c-0.1,0-8.5,0.4-12.5,0.4
				c-1.5,0-2.1-0.3-2.1-1.1c0-0.4,0.3-0.8,1.1-0.8c1.2,0,2.8-0.3,4-0.5c2.7-0.5,3.3-3.5,3.9-7.3c0.7-5.6,0.7-16.1,0.7-28.8v-23.4
				H1536.4z M1547,507.9c0,0.7,0.3,1.2,0.9,1.6c2,1.2,8.1,2.1,14,2.1c3.2,0,6.9-0.4,10-2.5c4.7-3.2,8.1-10.4,8.1-20.5
				c0-16.6-8.8-26.6-23-26.6c-4,0-7.6,0.4-8.9,0.8c-0.7,0.3-1.1,0.8-1.1,1.6V507.9z"/>
			<path d="M1626.8,556.6c-1.9-0.9-2-1.5-2-5.1c0-6.6,0.5-12,0.7-14.1c0.1-1.5,0.4-2.1,1.1-2.1c0.8,0,0.9,0.4,0.9,1.5
				c0,1.2,0,3.1,0.4,4.9c2,9.8,10.8,13.6,19.7,13.6c12.8,0,19-9.2,19-17.7c0-9.2-3.9-14.5-15.3-23.9l-6-4.9
				c-14.1-11.6-17.3-19.8-17.3-28.8c0-14.2,10.6-23.9,27.5-23.9c5.2,0,9,0.5,12.4,1.3c2.5,0.5,3.6,0.7,4.7,0.7s1.3,0.3,1.3,0.9
				c0,0.7-0.5,5.1-0.5,14.1c0,2.1-0.3,3.1-0.9,3.1c-0.8,0-0.9-0.7-1.1-1.7c-0.1-1.6-0.9-5.2-1.7-6.6c-0.8-1.5-4.4-7-16.6-7
				c-9.2,0-16.3,5.7-16.3,15.4c0,7.6,3.5,12.4,16.2,22.3l3.7,2.9c15.7,12.4,19.4,20.6,19.4,31.2c0,5.5-2.1,15.6-11.3,22.1
				c-5.7,4-12.9,5.6-20.1,5.6C1638.3,560.1,1632.2,559.2,1626.8,556.6z"/>
			<path d="M1722.2,519.7c0,12.8,0,23.3,0.7,28.8c0.4,3.9,1.2,6.8,5.2,7.3c1.9,0.3,4.8,0.5,6,0.5c0.8,0,1.1,0.4,1.1,0.8
				c0,0.7-0.7,1.1-2.1,1.1c-7.3,0-15.7-0.4-16.3-0.4c-0.7,0-9,0.4-13,0.4c-1.5,0-2.1-0.3-2.1-1.1c0-0.4,0.3-0.8,1.1-0.8
				c1.2,0,2.8-0.3,4-0.5c2.7-0.5,3.3-3.5,3.9-7.3c0.7-5.6,0.7-16.1,0.7-28.8v-23.4c0-20.7,0-24.5-0.3-28.7c-0.3-4.5-1.6-6.8-4.5-7.4
				c-1.5-0.4-3.2-0.5-4.1-0.5c-0.5,0-1.1-0.3-1.1-0.8c0-0.8,0.7-1.1,2.1-1.1c4.4,0,12.8,0.4,13.4,0.4c0.7,0,9-0.4,13-0.4
				c1.5,0,2.1,0.3,2.1,1.1c0,0.5-0.5,0.8-1.1,0.8c-0.9,0-1.7,0.1-3.3,0.4c-3.6,0.7-4.7,2.9-4.9,7.6c-0.3,4.3-0.3,8-0.3,28.7v23.3
				H1722.2z"/>
			<path d="M1797.8,519.7c0,12.8,0,23.3,0.7,28.8c0.4,3.9,1.2,6.8,5.2,7.3c1.9,0.3,4.8,0.5,6,0.5c0.8,0,1.1,0.4,1.1,0.8
				c0,0.7-0.7,1.1-2.1,1.1c-7.3,0-15.7-0.4-16.3-0.4c-0.7,0-9,0.4-13,0.4c-1.5,0-2.1-0.3-2.1-1.1c0-0.4,0.3-0.8,1.1-0.8
				c1.2,0,2.8-0.3,4-0.5c2.7-0.5,3.3-3.5,3.9-7.3c0.7-5.6,0.7-16.1,0.7-28.8v-56.2l-19.7,0.3c-8.2,0.1-11.4,1.1-13.6,4.3
				c-1.5,2.3-1.9,3.2-2.3,4.1c-0.4,1.1-0.8,1.3-1.3,1.3c-0.4,0-0.7-0.4-0.7-1.2c0-1.3,2.7-12.8,2.9-13.8c0.3-0.8,0.8-2.5,1.3-2.5
				c0.9,0,2.3,1.3,5.8,1.6c3.9,0.4,8.9,0.7,10.5,0.7h49.8c4.3,0,7.3-0.3,9.4-0.7c2-0.3,3.2-0.7,3.7-0.7c0.7,0,0.7,0.8,0.7,1.6
				c0,4-0.4,13.2-0.4,14.6c0,1.2-0.4,1.7-0.9,1.7c-0.7,0-0.9-0.4-1.1-2.3l-0.1-1.5c-0.4-4-3.6-7-16.3-7.3l-16.7-0.3v56.3H1797.8z"/>
			<path d="M1879.1,523.9c0-7.2-1.3-10.1-3.1-14c-0.9-2.1-18.7-31.4-23.4-38.3c-3.3-4.9-6.6-8.2-9-9.8c-2-1.3-4.5-2.1-5.7-2.1
				c-0.7,0-1.3-0.3-1.3-0.9c0-0.5,0.5-0.9,1.7-0.9c2.5,0,12.5,0.4,13.2,0.4c0.9,0,6-0.4,11.2-0.4c1.5,0,1.7,0.4,1.7,0.9
				s-0.8,0.7-2,1.2c-1.1,0.5-1.7,1.3-1.7,2.4c0,1.6,0.7,3.2,1.7,5.2c2.1,3.9,22.1,38.1,24.5,42c2.5-5.6,19.4-34.7,22.1-39.1
				c1.7-2.8,2.3-5.1,2.3-6.8c0-1.9-0.5-3.3-2.1-3.7c-1.2-0.4-2-0.7-2-1.3c0-0.5,0.8-0.8,2.1-0.8c3.5,0,7.7,0.4,8.8,0.4
				c0.8,0,10.4-0.4,12.9-0.4c0.9,0,1.7,0.3,1.7,0.8c0,0.7-0.7,1.1-1.7,1.1c-1.5,0-4,0.5-6.1,1.9c-2.7,1.6-4.1,3.2-7,6.8
				c-4.4,5.3-23,36.6-25.4,42.3c-2,4.8-2,8.9-2,13.3v11.4c0,2.1,0,7.7,0.4,13.3c0.3,3.9,1.5,6.8,5.5,7.3c1.9,0.3,4.8,0.5,6,0.5
				c0.8,0,1.1,0.4,1.1,0.8c0,0.7-0.7,1.1-2.1,1.1c-7.3,0-15.7-0.4-16.3-0.4c-0.7,0-9,0.4-13,0.4c-1.5,0-2.1-0.3-2.1-1.1
				c0-0.4,0.3-0.8,1.1-0.8c1.2,0,2.8-0.3,4-0.5c2.7-0.5,3.9-3.5,4.1-7.3c0.4-5.6,0.4-11.2,0.4-13.3v-11.6H1879.1z"/>
			<path d="M2031.6,455.9c29.9,0,52.2,18.9,52.2,49.8c0,29.8-21,54.4-53,54.4c-36.4,0-51.6-28.3-51.6-52.2
				C1979.3,486.4,1995,455.9,2031.6,455.9z M2034.4,555.1c12,0,36.7-6.9,36.7-45.6c0-31.9-19.4-49-40.4-49
				c-22.2,0-38.8,14.6-38.8,43.7C1991.9,535.2,2010.5,555.1,2034.4,555.1z"/>
			<path d="M2112.1,496.3c0-20.7,0-24.5-0.3-28.7c-0.3-4.5-1.3-6.6-5.7-7.6c-1.1-0.3-3.3-0.4-4.5-0.4c-0.5,0-1.1-0.3-1.1-0.8
				c0-0.8,0.7-1.1,2.1-1.1c3.1,0,6.6,0,9.6,0.1l5.4,0.3c2.7,0.1,29.6,0,32.7-0.1c2.5-0.1,4.7-0.1,5.8-0.5c0.8-0.3,1.3-0.8,1.9-0.8
				c0.5,0,0.8,0.5,0.8,1.2c0,0.9-0.7,2.5-1.1,6.2c-0.1,1.3-0.4,7.2-0.7,8.8c-0.1,0.7-0.4,1.5-1.1,1.5c-0.7,0-0.9-0.7-0.9-1.6
				c0-1.1-0.4-3.3-1.2-5.1c-0.8-1.7-3.9-4.1-9-4.3l-20.5-0.4c-0.8,0-1.2,0.4-1.2,1.5v36.7c0,0.8,0.1,1.2,0.9,1.2l17-0.1
				c2.3,0,4.1,0,6-0.1c3.2-0.3,4.9-0.7,6.1-2.4c0.5-0.7,0.9-1.3,1.5-1.3c0.5,0,0.7,0.4,0.7,1.1c0,0.8-0.7,3.1-1.1,7.4
				c-0.3,2.7-0.5,8-0.5,8.9c0,1.2,0,2.5-0.9,2.5c-0.7,0-0.9-0.5-0.9-1.2c-0.1-1.3-0.3-3.2-0.8-4.8c-0.7-1.9-2.8-4.3-6.9-4.8
				c-3.3-0.4-17.8-0.4-20.1-0.4c-0.7,0-0.9,0.3-0.9,1.2v11.3c0,12.8,0,23.3,0.7,28.8c0.4,3.9,1.2,6.8,5.2,7.3c1.9,0.3,4.8,0.5,6,0.5
				c0.8,0,1.1,0.4,1.1,0.8c0,0.7-0.7,1.1-2.1,1.1c-7.3,0-15.7-0.4-16.3-0.4c-0.7,0-9,0.4-13,0.4c-1.5,0-2.1-0.3-2.1-1.1
				c0-0.4,0.3-0.8,1.1-0.8c1.2,0,2.8-0.3,4-0.5c2.7-0.5,3.3-3.5,3.9-7.3c0.7-5.6,0.7-16.1,0.7-28.8v-23.4H2112.1z"/>
			<path d="M2226.2,496.3c0-20.7,0-24.5-0.3-28.7c-0.3-4.5-1.3-6.6-5.7-7.6c-1.1-0.3-3.3-0.4-4.5-0.4c-0.5,0-1.1-0.3-1.1-0.8
				c0-0.8,0.7-1.1,2.1-1.1c6,0,14.1,0.4,15.3,0.4s9.2-0.4,13.2-0.4c1.5,0,2.1,0.3,2.1,1.1c0,0.5-0.5,0.8-1.1,0.8
				c-0.9,0-1.7,0.1-3.3,0.4c-3.6,0.5-4.7,2.9-4.9,7.6c-0.3,4.3-0.3,8-0.3,28.7V515c0,19.1,4.3,27.4,10,32.8
				c6.5,6.1,12.5,7.3,20.1,7.3c8.1,0,16.1-3.9,20.9-9.6c6.1-7.6,7.7-18.9,7.7-32.6v-16.6c0-20.7,0-24.5-0.3-28.7
				c-0.3-4.5-1.3-6.6-5.7-7.6c-1.1-0.3-3.3-0.4-4.5-0.4c-0.5,0-1.1-0.3-1.1-0.8c0-0.8,0.7-1.1,2.1-1.1c6,0,13.3,0.4,14.1,0.4
				c0.9,0,7.2-0.4,11.2-0.4c1.5,0,2.1,0.3,2.1,1.1c0,0.5-0.5,0.8-1.1,0.8c-0.9,0-1.7,0.1-3.3,0.4c-3.6,0.8-4.7,2.9-4.9,7.6
				c-0.3,4.3-0.3,8-0.3,28.7v14.2c0,14.4-1.6,30.3-12.2,39.7c-9.6,8.5-19.5,9.8-27.4,9.8c-4.5,0-17.9-0.5-27.4-9.4
				c-6.5-6.2-11.6-15.6-11.6-35L2226.2,496.3L2226.2,496.3z"/>
			<path d="M2372.6,519.7c0,12.8,0,23.3,0.7,28.8c0.4,3.9,1.2,6.8,5.2,7.3c1.9,0.3,4.8,0.5,6,0.5c0.8,0,1.1,0.4,1.1,0.8
				c0,0.7-0.7,1.1-2.1,1.1c-7.3,0-15.7-0.4-16.3-0.4c-0.7,0-9,0.4-13,0.4c-1.5,0-2.1-0.3-2.1-1.1c0-0.4,0.3-0.8,1.1-0.8
				c1.2,0,2.8-0.3,4-0.5c2.7-0.5,3.3-3.5,3.9-7.3c0.7-5.6,0.7-16.1,0.7-28.8v-56.2l-19.7,0.3c-8.2,0.1-11.4,1.1-13.6,4.3
				c-1.5,2.3-1.9,3.2-2.3,4.1c-0.4,1.1-0.8,1.3-1.3,1.3c-0.4,0-0.7-0.4-0.7-1.2c0-1.3,2.7-12.8,2.9-13.8c0.3-0.8,0.8-2.5,1.3-2.5
				c0.9,0,2.3,1.3,5.8,1.6c3.9,0.4,8.9,0.7,10.5,0.7h49.8c4.3,0,7.3-0.3,9.4-0.7c2-0.3,3.2-0.7,3.7-0.7c0.7,0,0.7,0.8,0.7,1.6
				c0,4-0.4,13.2-0.4,14.6c0,1.2-0.4,1.7-0.9,1.7c-0.7,0-0.9-0.4-1.1-2.3l-0.1-1.5c-0.4-4-3.6-7-16.3-7.3l-16.7-0.3v56.3H2372.6z"/>
			<path d="M2449.3,461.1c1.6-4.4,2.1-5.2,2.9-5.2c0.8,0,1.3,0.7,2.9,4.8c2,5.1,22.9,59.9,31,80.2c4.8,11.8,8.6,14,11.4,14.8
				c2,0.7,4,0.8,5.3,0.8c0.8,0,1.3,0.1,1.3,0.8c0,0.8-1.2,1.1-2.7,1.1c-2,0-11.7,0-20.9-0.3c-2.5-0.1-4-0.1-4-0.9
				c0-0.5,0.4-0.8,0.9-0.9c0.8-0.3,1.6-1.5,0.8-3.6l-12.4-32.7c-0.3-0.5-0.5-0.8-1.2-0.8H2436c-0.7,0-1.1,0.4-1.3,1.1l-8,23.5
				c-1.2,3.3-1.9,6.5-1.9,8.9c0,2.7,2.8,3.9,5.1,3.9h1.3c0.9,0,1.3,0.3,1.3,0.8c0,0.8-0.8,1.1-2,1.1c-3.2,0-8.9-0.4-10.4-0.4
				s-8.8,0.4-15,0.4c-1.7,0-2.5-0.3-2.5-1.1c0-0.5,0.5-0.8,1.2-0.8c0.9,0,2.8-0.1,3.9-0.3c6.1-0.8,8.8-5.8,11.2-12.5L2449.3,461.1z
				 M2463.1,514.3c0.7,0,0.7-0.4,0.5-0.9l-12.6-35.9c-0.7-2-1.3-2-2,0l-11.7,35.9c-0.3,0.7,0,0.9,0.4,0.9H2463.1z"/>
			<path d="M2603.4,519.7c0,12.8,0,23.3,0.7,28.8c0.4,3.9,1.2,6.8,5.2,7.3c1.9,0.3,4.8,0.5,6,0.5c0.8,0,1.1,0.4,1.1,0.8
				c0,0.7-0.7,1.1-2.1,1.1c-7.3,0-15.7-0.4-16.3-0.4c-0.7,0-9,0.4-13,0.4c-1.5,0-2.1-0.3-2.1-1.1c0-0.4,0.3-0.8,1.1-0.8
				c1.2,0,2.8-0.3,4-0.5c2.7-0.5,3.3-3.5,3.9-7.3c0.7-5.6,0.7-16.1,0.7-28.8v-14c0-0.5-0.4-0.8-0.8-0.8h-56.4
				c-0.4,0-0.8,0.1-0.8,0.8v14c0,12.8,0,23.3,0.7,28.8c0.4,3.9,1.2,6.8,5.2,7.3c1.9,0.3,4.8,0.5,6,0.5c0.8,0,1.1,0.4,1.1,0.8
				c0,0.7-0.7,1.1-2.1,1.1c-7.3,0-15.7-0.4-16.3-0.4c-0.7,0-9,0.4-13,0.4c-1.5,0-2.1-0.3-2.1-1.1c0-0.4,0.3-0.8,1.1-0.8
				c1.2,0,2.8-0.3,4-0.5c2.7-0.5,3.3-3.5,3.9-7.3c0.7-5.6,0.7-16.1,0.7-28.8v-23.4c0-20.7,0-24.5-0.3-28.7c-0.3-4.5-1.3-6.6-5.7-7.6
				c-1.1-0.3-3.3-0.4-4.5-0.4c-0.5,0-1.1-0.3-1.1-0.8c0-0.8,0.7-1.1,2.1-1.1c6,0,14.4,0.4,15,0.4c0.7,0,9-0.4,13-0.4
				c1.5,0,2.1,0.3,2.1,1.1c0,0.5-0.5,0.8-1.1,0.8c-0.9,0-1.7,0.1-3.3,0.4c-3.6,0.7-4.7,2.9-4.9,7.6c-0.3,4.3-0.3,8-0.3,28.7v2.8
				c0,0.7,0.4,0.8,0.8,0.8h56.4c0.4,0,0.8-0.1,0.8-0.8v-2.8c0-20.7,0-24.5-0.3-28.7c-0.3-4.5-1.3-6.6-5.7-7.6
				c-1.1-0.3-3.3-0.4-4.5-0.4c-0.5,0-1.1-0.3-1.1-0.8c0-0.8,0.7-1.1,2.1-1.1c6,0,14.4,0.4,15,0.4c0.7,0,9-0.4,13-0.4
				c1.5,0,2.1,0.3,2.1,1.1c0,0.5-0.5,0.8-1.1,0.8c-0.9,0-1.7,0.1-3.3,0.4c-3.6,0.7-4.7,2.9-4.9,7.6c-0.3,4.3-0.3,8-0.3,28.7v23.4
				H2603.4z"/>
		</g>
		<rect x="693.3" y="416" class="st0" width="1931.5" height="9.1"/>
	</g>
	<g>
		<polygon class="st1" points="46.8,25.2 46.8,187.9 101,187.9 101,458.4 209.5,566.2 479.4,566.2 587.8,458.4 587.8,187.9 
			642.1,187.9 642.1,25.2 371.5,25.2 371.5,187.9 425.8,187.9 425.8,403.5 263.1,403.5 263.1,187.9 317.3,187.9 317.3,25.2 		"/>
		<g>
			<path class="st1" d="M566.8,532.2c11.9,0,21.4,9.7,21.4,21.7c0,12.3-9.5,21.8-21.4,21.8s-21.5-9.6-21.5-21.8
				C545.2,541.9,554.8,532.2,566.8,532.2L566.8,532.2z M566.7,535.6c-9.6,0-17.4,8.2-17.4,18.3c0,10.3,7.8,18.4,17.5,18.4
				c9.7,0.1,17.4-8.1,17.4-18.3S576.5,535.6,566.7,535.6L566.7,535.6z M562.6,566.6h-3.9v-24.2c2-0.3,4-0.6,6.9-0.6
				c3.7,0,6.1,0.8,7.5,1.8c1.4,1.1,2.2,2.7,2.2,5c0,3.2-2.1,5.1-4.7,5.9v0.2c2.1,0.4,3.6,2.3,4,5.9c0.6,3.8,1.2,5.2,1.5,6H572
				c-0.6-0.8-1.2-3-1.6-6.2c-0.6-3.1-2.1-4.2-5.2-4.2h-2.7L562.6,566.6L562.6,566.6z M562.6,553.2h2.8c3.2,0,5.9-1.2,5.9-4.2
				c0-2.1-1.5-4.3-5.9-4.3c-1.3,0-2.1,0.1-2.8,0.2V553.2z"/>
		</g>
	</g>
</g>
</svg>
